HIERARCHY
ROOT Hips
{
	OFFSET	0.00	0.00	0.00
	CHANNELS 6 Xposition Yposition Zposition Zrotation Xrotation Yrotation
	JOINT LeftUpLeg
	{
		OFFSET	 0.126116	-0.014019	-0.065224
		CHANNELS 3 Zrotation Xrotation Yrotation
		JOINT LeftLeg
		{
			OFFSET	 0.000000	 0.000000	 0.569914
			CHANNELS 3 Zrotation Xrotation Yrotation
			JOINT LeftFoot
			{
				OFFSET	 0.000000	 0.000000	 0.544423
				CHANNELS 3 Zrotation Xrotation Yrotation
				JOINT LeftToeBase
				{
					OFFSET	 0.000000	 0.000000	 0.207117
					CHANNELS 3 Zrotation Xrotation Yrotation
					End Site
					{
						OFFSET	 0.000000	 0.000000	 0.207117
					}
				}
			}
		}
	}
	JOINT RightUpLeg
	{
		OFFSET	-0.124023	-0.008373	-0.065224
		CHANNELS 3 Zrotation Xrotation Yrotation
		JOINT RightLeg
		{
			OFFSET	 0.000000	 0.000000	 0.570047
			CHANNELS 3 Zrotation Xrotation Yrotation
			JOINT RightFoot
			{
				OFFSET	 0.000000	 0.000000	 0.544354
				CHANNELS 3 Zrotation Xrotation Yrotation
				JOINT RightToeBase
				{
					OFFSET	 0.000000	 0.000000	 0.207540
					CHANNELS 3 Zrotation Xrotation Yrotation
					End Site
					{
						OFFSET	 0.000000	 0.000000	 0.207540
					}
				}
			}
		}
	}
	JOINT Spine
	{
		OFFSET	 0.000184	-0.007763	 0.117403
		CHANNELS 3 Zrotation Xrotation Yrotation
		JOINT Spine1
		{
			OFFSET	 0.000000	 0.000000	 0.137269
			CHANNELS 3 Zrotation Xrotation Yrotation
			JOINT Spine2
			{
				OFFSET	 0.000000	 0.000000	 0.156879
				CHANNELS 3 Zrotation Xrotation Yrotation
				JOINT LeftShoulder
				{
					OFFSET	 0.080501	-0.002496	 0.160144
					CHANNELS 3 Zrotation Xrotation Yrotation
					JOINT LeftArm
					{
						OFFSET	 0.000000	 0.000000	 0.164363
						CHANNELS 3 Zrotation Xrotation Yrotation
						JOINT LeftForeArm
						{
							OFFSET	 0.000000	 0.000000	 0.364576
							CHANNELS 3 Zrotation Xrotation Yrotation
							JOINT LeftHand
							{
								OFFSET	 0.000000	 0.000000	 0.360812
								CHANNELS 3 Zrotation Xrotation Yrotation
								JOINT LeftHandIndex1
								{
									OFFSET	 0.000000	 0.000000	 0.086006
									CHANNELS 3 Zrotation Xrotation Yrotation
									JOINT LeftHandIndex2
									{
										OFFSET	 0.000000	 0.000000	 0.047236
										CHANNELS 3 Zrotation Xrotation Yrotation
										JOINT LeftHandIndex3
										{
											OFFSET	-0.004284	-0.000551	 0.038166
											CHANNELS 3 Zrotation Xrotation Yrotation
											End Site
											{
												OFFSET	-0.004284	-0.000551	 0.038166
											}
										}
									}
								}
							}
						}
					}
				}
				JOINT Neck
				{
					OFFSET	 0.000000	 0.000000	 0.176489
					CHANNELS 3 Zrotation Xrotation Yrotation
					JOINT Head
					{
						OFFSET	 0.000000	-0.001747	 0.077940
						CHANNELS 3 Zrotation Xrotation Yrotation
						End Site
						{
							OFFSET	 0.000000	-0.001747	 0.077940
						}
					}
				}
				JOINT RightShoulder
				{
					OFFSET	-0.080363	 0.000306	 0.159706
					CHANNELS 3 Zrotation Xrotation Yrotation
					JOINT RightArm
					{
						OFFSET	 0.000000	 0.000000	 0.164196
						CHANNELS 3 Zrotation Xrotation Yrotation
						JOINT RightForeArm
						{
							OFFSET	 0.000000	 0.000000	 0.365611
							CHANNELS 3 Zrotation Xrotation Yrotation
							JOINT RightHand
							{
								OFFSET	 0.000000	 0.000000	 0.360648
								CHANNELS 3 Zrotation Xrotation Yrotation
								JOINT RightHandIndex1
								{
									OFFSET	 0.000000	 0.000000	 0.069977
									CHANNELS 3 Zrotation Xrotation Yrotation
									JOINT RightHandIndex2
									{
										OFFSET	 0.000000	 0.000000	 0.052305
										CHANNELS 3 Zrotation Xrotation Yrotation
										JOINT RightHandIndex3
										{
											OFFSET	 0.009002	-0.000782	 0.042196
											CHANNELS 3 Zrotation Xrotation Yrotation
											End Site
											{
												OFFSET	 0.009002	-0.000782	 0.042196
											}
										}
									}
								}
							}
						}
					}
				}
			}
		}
	}
}
MOTION
Frames:    11
Frame Time: 0.03333334
 0.013615	 0.057935	 1.201758	 5.230714	-0.907279	-2.735946	-5.993738	-13.787500	-170.968400	 1.082089	-39.008450	 0.459104	 46.480550	 80.240770	-50.655440	-2.369229	 31.644230	-0.070580	-0.201768	-30.035380	-175.802500	 11.508780	-52.133840	 9.739717	 36.859050	 80.073650	-34.394400	 2.358933	 33.005550	 0.103353	-6.597105	 8.419184	 1.982449	-1.988508	 1.657737	-1.396015	 3.186280	-2.084637	 1.593506	-94.007300	 58.964350	 175.241500	 24.737300	 43.185130	-22.822400	-1.909643	-2.418459	-23.918890	-0.426472	-18.055130	-8.074155	-4.868501	 19.285460	-2.793736	-3.875752	 21.546650	 2.196886	-4.805613	 5.576772	 0.145138	-0.060252	-5.089431	 0.200803	 1.110090	 1.808701	 2.681738	 89.755090	 61.687690	 179.935500	-19.877510	 52.902700	 12.506350	-1.920120	-1.700489	 8.469404	-4.904591	-3.088036	 0.481559	 6.287169	 24.324390	-0.540811	 1.951782	 44.159230	-7.052103	 0.632604	 23.807780	 3.514730
 0.012986	 0.047839	 1.201013	 5.911350	-0.277841	-2.775017	-6.649057	-14.038660	-171.025500	 1.360290	-39.059810	 0.634941	 46.517070	 80.334960	-50.890630	-2.368069	 31.834520	-0.074910	-1.889165	-31.634950	-175.681900	 12.403130	-50.947450	 10.291950	 76.093270	 82.383160	-74.933770	 2.359059	 32.987740	 0.102939	-6.957249	 7.965398	 1.782771	-1.962540	 1.456292	-1.194450	 3.023819	-2.310782	 1.517272	-94.174530	 58.991570	 174.881200	 25.219630	 42.427570	-22.857050	-2.180993	-2.459890	-25.406370	-0.019246	-18.502290	-8.700076	-4.862613	 19.435940	-2.803614	-3.866287	 21.667310	 2.187268	-4.803474	 5.601868	 0.143674	-0.025850	-5.114523	 0.250075	 1.052253	 1.653114	 2.585383	 89.690220	 61.805240	 179.779600	-19.358070	 53.372470	 11.271490	-2.473615	-1.844362	 8.739984	-5.121468	-2.763390	 0.240422	 6.270615	 23.150030	-0.557297	 2.087919	 43.010350	-7.172678	 0.884966	 22.680460	 3.390551
 0.012538	 0.027051	 1.199717	 6.405048	 0.547771	-3.163033	-7.064891	-13.710200	-170.748500	 1.588545	-38.664960	 0.772182	 48.207100	 80.595500	-52.790400	-2.365481	 32.250530	-0.084395	-2.458704	-34.007240	-174.933100	 13.144340	-48.251590	 10.462740	 101.212200	 79.782420	-101.935900	 2.361428	 32.631680	 0.094694	-7.132526	 7.203332	 1.836989	-1.909458	 1.644925	-0.864333	 2.813294	-2.729216	 1.353706	-94.371600	 58.984980	 174.462100	 25.385700	 40.978070	-23.224020	-3.036037	-2.263120	-27.661500	 0.063116	-19.488230	-8.229392	-4.845888	 19.817150	-2.819511	-3.848165	 21.897280	 2.168851	-4.793551	 5.718806	 0.136806	-0.004749	-5.185062	 0.316111	 0.898035	 1.454211	 2.554312	 89.554020	 61.964000	 179.449900	-18.530520	 54.017460	 9.345607	-3.732501	-2.151599	 9.176975	-5.831216	-2.250394	-0.706471	 6.237702	 21.226570	-0.621982	 2.261964	 41.465910	-7.325591	 1.318242	 20.694340	 3.187130
 0.011958	 0.002201	 1.198194	 6.544101	 0.915805	-3.491271	-7.273364	-12.508480	-170.484600	 1.694229	-38.023560	 0.826447	 49.329560	 80.742610	-54.033310	-2.359452	 33.165200	-0.105496	-1.240792	-35.439980	-173.918700	 12.442830	-44.618930	 9.355640	 121.703800	 74.610500	-123.168800	 2.353654	 33.759150	 0.120975	-7.241983	 6.637616	 1.969528	-1.855300	 2.409461	-0.611791	 2.681567	-3.265403	 1.223072	-94.462280	 58.964670	 174.272200	 24.651020	 39.583900	-23.813450	-3.635867	-2.083938	-29.292950	-0.183074	-19.904350	-7.735796	-4.827703	 20.178750	-2.822478	-3.827361	 22.159580	 2.147724	-4.773369	 5.955802	 0.122842	 0.020253	-5.268601	 0.340407	 0.784474	 1.255462	 2.502532	 89.456800	 62.039230	 179.213300	-17.521050	 54.516620	 7.393647	-5.006842	-2.404194	 9.307273	-6.418456	-2.062452	-1.975416	 6.200514	 19.280630	-0.700016	 2.506017	 39.145890	-7.537416	 1.728100	 18.757760	 3.006596
 0.010724	-0.032378	 1.195755	 6.795970	 1.030481	-3.761975	-7.724599	-10.366100	-170.288200	 1.897772	-37.026070	 0.930538	 47.875270	 80.607700	-52.741550	-2.343524	 35.299010	-0.156083	-0.277280	-36.189840	-172.849000	 12.042180	-38.629240	 8.072634	 117.441400	 72.457110	-119.797800	 2.339241	 35.613550	 0.165396	-7.601838	 6.495445	 2.078897	-1.808551	 3.038448	-0.356768	 2.535752	-3.957734	 1.081861	-94.530580	 58.914230	 174.135100	 23.049130	 38.079810	-24.666810	-3.812805	-2.069074	-30.327870	-0.573998	-20.938680	-7.907581	-4.838197	 20.440100	-2.960280	-3.799281	 22.510790	 2.119207	-4.738164	 6.367383	 0.098367	 0.083640	-5.366769	 0.353012	 0.698624	 1.084576	 2.272428	 89.377040	 61.996620	 179.022000	-16.173950	 54.932110	 4.831854	-6.323797	-2.544877	 8.991766	-6.736781	-2.400923	-3.350810	 6.169950	 17.013190	-0.704490	 2.785974	 36.241020	-7.776151	 2.191037	 16.505260	 2.817320
 0.008075	-0.070720	 1.192096	 7.039165	 1.000877	-3.646950	-8.410789	-7.868185	-170.515000	 2.331839	-36.105130	 1.166540	 40.605450	 79.555020	-45.721770	-2.304415	 39.430360	-0.260463	 0.183478	-36.005080	-172.411500	 10.997830	-31.303030	 6.171071	 92.293510	 74.615940	-94.641540	 2.337572	 35.813000	 0.170265	-8.111590	 6.421053	 1.944824	-1.721684	 3.828806	-0.222389	 2.361113	-4.656769	 0.950334	-94.528710	 59.109780	 174.106600	 21.211640	 36.945960	-26.098040	-3.849104	-2.047125	-30.319650	-1.263671	-22.369260	-8.557129	-4.866825	 20.568260	-3.164761	-3.773079	 22.835560	 2.092609	-4.693385	 6.887370	 0.067055	 0.155813	-5.455038	 0.302275	 0.658782	 0.986155	 2.055307	 89.356760	 61.759950	 178.981800	-14.942680	 55.037910	 2.250513	-7.420821	-2.644953	 8.705523	-7.010026	-3.117512	-4.505909	 6.178212	 14.805300	-0.520837	 2.968580	 34.192660	-7.929048	 2.627218	 14.322840	 2.653890
 0.003079	-0.114691	 1.185545	 7.311637	 0.692515	-2.882229	-8.882562	-4.795111	-171.523900	 2.029692	-35.686830	 0.978453	 28.790320	 76.559080	-33.314000	-2.185544	 47.610310	-0.502369	 1.424879	-35.930160	-172.405600	 7.408681	-25.276870	 3.506507	 47.051340	 73.866730	-46.141990	 2.340445	 35.468760	 0.161870	-8.739329	 6.408607	 1.171601	-1.566409	 5.088082	 0.085627	 2.094732	-5.377944	 0.634355	-94.465580	 59.340790	 174.203300	 19.406600	 36.094220	-27.595630	-4.062440	-1.938063	-30.530010	-1.986511	-23.386700	-8.905520	-4.890604	 20.695000	-3.343410	-3.755768	 23.048640	 2.075027	-4.635563	 7.553150	 0.026310	 0.245685	-5.476778	 0.248049	 0.626765	 1.011405	 2.121769	 89.354100	 61.464570	 178.986400	-13.801210	 54.935550	-0.466080	-8.385069	-2.949513	 9.139771	-7.603004	-4.102670	-5.363983	 6.255639	 12.359150	-0.048155	 3.111728	 32.495420	-8.047163	 3.061097	 12.098020	 2.506352
-0.002120	-0.156347	 1.177248	 8.113617	 0.049042	-2.092579	-8.776451	-1.403406	-172.802300	 0.252428	-35.369470	-0.058055	 18.812700	 70.550090	-21.136460	-2.005955	 55.025050	-0.787711	 3.596547	-37.225320	-171.668900	 6.273955	-23.450460	 2.810257	 15.706050	 66.171990	-12.233510	 2.335701	 36.032110	 0.175642	-9.563872	 6.628074	 0.358372	-1.543022	 6.546926	 0.390507	 1.752962	-6.034301	 0.287740	-94.407100	 59.142270	 174.361500	 17.968050	 35.143160	-28.591580	-4.406127	-1.816324	-31.696210	-2.155981	-23.065850	-8.626589	-4.895865	 20.870630	-3.432692	-3.738928	 23.254760	 2.057934	-4.581556	 8.169010	-0.012050	 0.342814	-5.429174	 0.275154	 0.543208	 1.197803	 2.286103	 89.251100	 61.411280	 178.745000	-12.955520	 54.816980	-2.269521	-8.739940	-3.109755	 9.428961	-7.946072	-5.059870	-5.042534	 6.324491	 10.384020	 0.298737	 3.265934	 30.571630	-8.172493	 3.361545	 10.528350	 2.413296
-0.008392	-0.202737	 1.167605	 9.345795	-0.560463	-1.208288	-9.048820	 2.292281	-174.342800	 0.476891	-34.640790	 0.070587	 10.732680	 59.459380	-11.784050	-1.479389	 66.044010	-1.463960	 4.390485	-39.356480	-171.397700	 7.182427	-23.504660	 3.183949	 5.445705	 55.112600	-1.836258	 2.341503	 35.339930	 0.158744	-10.481180	 6.741707	-0.337542	-1.719609	 8.113017	 0.224870	 1.286699	-6.676853	 0.146711	-94.312820	 59.172630	 174.558500	 17.013860	 34.403320	-29.808070	-4.387344	-1.908050	-32.804150	-1.919363	-22.167020	-8.784507	-4.854490	 21.124780	-3.274277	-3.702872	 23.692180	 2.021331	-4.533679	 8.710217	-0.046291	 0.395119	-5.361123	 0.266548	 0.340717	 1.466146	 2.291866	 89.100020	 61.129830	 178.403500	-12.169110	 54.411360	-4.179016	-8.245288	-3.330821	 10.381710	-7.558535	-6.033087	-3.956484	 6.358154	 9.018499	 0.455393	 3.364807	 29.283500	-8.251736	 3.570624	 9.423154	 2.353064
-0.016508	-0.263070	 1.157884	 10.063890	-0.938868	-0.117338	-4.963129	 7.322949	-177.909400	 1.531735	-32.088980	 0.626401	 4.182230	 42.593680	-1.175472	-1.210836	 69.221980	-1.774446	 2.827593	-40.311970	-173.192700	 6.735602	-22.496720	 2.881286	 3.237223	 45.698920	 0.784987	 2.360596	 32.759010	 0.097632	-11.010580	 6.725948	-1.019303	-2.029515	 9.208293	-0.330408	 0.768668	-7.163280	 0.091443	-94.157360	 59.683780	 174.815100	 16.420020	 34.331460	-31.116970	-3.539792	-2.467307	-32.917100	-1.263818	-21.454220	-9.350047	-4.789395	 21.357440	-2.961713	-3.647594	 24.352900	 1.965251	-4.489579	 9.204773	-0.078034	 0.370323	-5.356888	 0.200332	-0.016804	 1.690244	 2.230126	 89.003300	 60.495610	 178.215800	-11.663200	 53.614720	-6.129012	-7.069643	-3.443945	 11.521380	-6.456147	-7.592041	-2.553534	 6.387670	 8.768418	 0.575466	 3.387871	 28.976790	-8.270082	 3.667091	 8.909825	 2.326546
-0.023510	-0.325657	 1.150491	 9.200555	-1.369134	 0.798662	 1.633283	 12.767670	 177.808200	 0.699676	-28.267560	 0.164317	 4.940733	 31.651480	 1.296050	-2.215930	 45.900010	-0.446869	 2.335762	-38.746870	-175.983400	 5.542746	-21.543270	 2.321732	 3.243684	 43.140030	 2.254510	 2.371447	 31.001790	 0.057581	-10.648820	 6.965254	-1.604625	-2.423833	 9.072105	-0.763900	 0.503682	-7.132116	-0.061270	-94.065530	 59.810890	 174.995800	 15.989400	 34.750370	-30.779750	-2.674886	-3.045206	-33.039890	-0.842032	-21.432920	-9.118766	-4.748723	 21.688090	-2.821432	-3.596825	 24.949420	 1.913757	-4.444019	 9.711707	-0.111014	 0.300381	-5.394674	 0.175876	-0.429053	 1.699094	 2.305931	 89.055060	 60.265350	 178.346700	-11.796240	 53.136910	-7.035665	-6.118152	-3.268510	 11.641460	-5.350285	-9.217431	-1.390310	 6.404084	 9.694138	 0.636641	 3.323274	 29.829920	-8.218562	 3.604088	 9.245295	 2.343773
